<svg xmlns="http://www.w3.org/2000/svg" width="34.002" height="26.715" viewBox="0 0 34.002 26.715"><defs><style>.a{fill:#5de2cc;}</style></defs><path class="a" d="M3.263,63.055q.645.455,3.89,2.7t4.971,3.462q.19.133.806.579t1.025.721q.408.275.987.617a5.724,5.724,0,0,0,1.091.512,3.006,3.006,0,0,0,.949.171h.038a3.009,3.009,0,0,0,.949-.171,5.731,5.731,0,0,0,1.091-.512q.579-.342.987-.617t1.025-.721q.616-.446.806-.579,1.745-1.214,8.88-6.167a9.014,9.014,0,0,0,2.315-2.334A5.011,5.011,0,0,0,34,57.856a3.062,3.062,0,0,0-3.036-3.036H3.036a2.71,2.71,0,0,0-2.248.986A3.83,3.83,0,0,0,0,58.273a4.432,4.432,0,0,0,1.044,2.59A9.418,9.418,0,0,0,3.263,63.055Z" transform="translate(0 -54.82)"/><path class="a" d="M32.1,186.088q-6.223,4.212-9.449,6.546-1.082.8-1.755,1.243a10.832,10.832,0,0,1-1.793.911,5.46,5.46,0,0,1-2.087.465h-.038a5.462,5.462,0,0,1-2.087-.465,10.838,10.838,0,0,1-1.793-.911q-.673-.446-1.755-1.243-2.562-1.878-9.43-6.546A10.051,10.051,0,0,1,0,184.437V199.5a2.923,2.923,0,0,0,.892,2.144,2.923,2.923,0,0,0,2.144.892h27.93A3.045,3.045,0,0,0,34,199.5V184.437A10.463,10.463,0,0,1,32.1,186.088Z" transform="translate(0 -175.823)"/></svg>