<svg xmlns="http://www.w3.org/2000/svg" width="22" height="25" viewBox="0 0 22 25"><defs><style>.a{fill:#fafafa;}</style></defs><path class="a" d="M18.687.99c0,.085-.651,8.511-1.023,12.057A3.6,3.6,0,0,1,14,16.581c-1.581.036-3.129.049-4.651.049-1.617,0-3.2-.012-4.732-.049a3.6,3.6,0,0,1-3.583-3.534C.653,9.488.013,1.075,0,.99a1.007,1.007,0,0,1,.233-.7A.859.859,0,0,1,.874,0H17.827a.883.883,0,0,1,.64.292.949.949,0,0,1,.221.7" transform="translate(1.655 8.371)"/><path class="a" d="M22,4.971a.893.893,0,0,0-.871-.916H17.565a1.575,1.575,0,0,1-1.517-1.271l-.2-.911A2.437,2.437,0,0,0,13.524,0H8.478A2.442,2.442,0,0,0,6.14,1.932l-.187.852a1.577,1.577,0,0,1-1.517,1.27H.872A.894.894,0,0,0,0,4.971v.475a.9.9,0,0,0,.872.916H21.129A.9.9,0,0,0,22,5.446Z"/></svg>