<svg xmlns="http://www.w3.org/2000/svg" width="505.072" height="392.885" viewBox="0 0 505.072 392.885"><defs><style>.a{fill:#d4a181;}.a,.b,.c,.d,.e,.f,.g,.h,.i,.j,.k,.l,.m{fill-rule:evenodd;}.b{fill:#191847;}.c{fill:#ba8b72;}.d{fill:#69a1ac;}.e{fill:#89c5cc;}.f{fill:#5cc2ad;}.g{fill:#b28b67;}.h{fill:#c5cfd6;}.i{fill:rgba(0,0,0,0.1);}.j{fill:#1f28cf;}.k{fill:#e4e4e4;}.l{fill:#2b44ff;}.m{fill:#997659;}</style></defs><g transform="matrix(1, -0.017, 0.017, 1, -112.148, -26.895)"><g transform="translate(111.603 32.208)"><g transform="matrix(0.966, 0.259, -0.259, 0.966, 43.829, 0)"><g transform="translate(41.271 9.659)"><path class="a" d="M7.255,30.286C3.209,25.537.47,19.716.928,13.194,2.247-5.6,28.406-1.464,33.494,8.021S37.978,41.564,31.4,43.259c-2.623.676-8.21-.98-13.9-4.407L21.075,64.1H0Z" transform="translate(0 0)"/></g><path class="b" d="M55.821,38.624c-2.613,5.016-6.228,8.794-9.839,8.794-6.859,0-11.735-9.17-11.735-19.029q0-.52.02-1.032C27.012,32.336,21.42,42.15,11.82,42.15c-13.061,0-18.248-26.344,0-26.344,12.41,0,18.514,1.809,23.775,4.485a17.09,17.09,0,0,1,4.554-7.1,7.08,7.08,0,0,1,2.1-1.49,9.73,9.73,0,0,1,1.744-.747,43.751,43.751,0,0,1,12.9-2.167c.959-.034,1.9-.043,2.818-.031a8.781,8.781,0,1,1,9.257,8.8,44.319,44.319,0,0,1-9.822,1.67,18.309,18.309,0,0,1,.565,4.711,26.633,26.633,0,0,1-.49,4.9A4.1,4.1,0,0,0,56.2,27.222a5.266,5.266,0,0,0-5.269,5.269C50.931,35.934,52.919,38.425,55.821,38.624Z" transform="translate(0 0)"/></g><g transform="translate(0 159.557)"><path class="c" d="M133.491,0l32.166,110.842,15.129,83.222h15.185L180.813,0Z" transform="translate(-94.854 0)"/><path class="a" d="M112.207,0c2.245,57.582,1.36,88.988.857,94.22s-3.355,40.269-22.787,101.6h15.794c25.736-58.837,34.72-93.874,37.671-101.6S155.411,55.087,168.139,0Z" transform="translate(-88.026)"/><path class="d" d="M132.671,0q12.55,57.212,43.413,182.648h22.21C199.935,96.816,192.956,40.324,180.871,0Z" transform="translate(-94.724 0)"/><path class="e" d="M112.221,0c2.2,57.582-3.5,114.311-21.145,183.545h23.7C140.557,125.587,159.036,69.137,171.665,0Z" transform="translate(-88.152)"/><g transform="translate(0 191.429)"><path class="b" d="M0,35.621l.871-14.05q7.653,2.238,19.172-1.756Q32.429,28.588,51.227,31.8a1.756,1.756,0,0,1,1.436,2.027,1.78,1.78,0,0,1-.042.184l-1.2,4.249H1.743Z" transform="translate(0 -19.815)"/></g><g transform="translate(82.543 191.429)"><path class="b" d="M0,35.621l.871-14.05q7.653,2.238,19.172-1.756Q32.429,28.588,51.227,31.8a1.756,1.756,0,0,1,1.436,2.027,1.78,1.78,0,0,1-.042.184l-1.2,4.249H1.743Z" transform="translate(0 -19.815)"/></g></g><g transform="translate(37.574 60.852) rotate(10)"><path class="a" d="M0,31.1,30.48,14.4A75.37,75.37,0,0,1,45.461.379c1.5-.628,4.132-1.007,1.673,3.356s-4.847,9.063-3.6,10.408,4.375-.534,5.87,1.7Q50.9,18.076,33.4,22.9L11.255,43.177ZM47.736,45.181l13.388-7.355Q63.942,27.1,67.861,27.036c2.007-.934-1.488,8.1,2.316,7.315s13.091-7.69,14.691-6.288c2.367,2.075.257,8.445-2.23,11.614-4.648,5.922-8.5,7.948-18.009,10.6Q57.17,52.358,48.5,58.616Z" transform="translate(71.491 6.4)"/><path class="f" d="M4.834,5.588A74.89,74.89,0,0,0,46.321,0l3.811,14.073C38.157,22.7,22.269,28.838,9.6,26.465-.38,24.6-3.584,11.656,4.834,5.588Z" transform="translate(50.999 29.014) rotate(-9)"/><path class="f" d="M71.022,55.112q17,4.24,57.018-10,9.926,20.535,9.177,29.28c-22.886,11.955-42.5,17.285-58.661,17.636.514,9.589-.653,18.713-4.575,27.05-8.06,17.139-55.259,1.266-71.128,4.39-9.938-32.275,9.277-45.391,9.293-66.042C12.163,34.81,30.322,0,32.993,0H57.358C58.7,17.272,65.469,36.307,71.022,55.112Z" transform="translate(0 0)"/></g></g></g><g transform="translate(244.572 36.652)"><g transform="translate(260.5 356.233) rotate(180)"><g transform="translate(50.682 233.701)"><g transform="translate(15.956)"><path class="g" d="M7.755,36.144C3.43,41.22.5,47.441.992,54.413,2.4,74.5,30.361,70.08,35.8,59.942s4.793-35.852-2.237-37.664c-2.8-.722-8.775,1.047-14.853,4.711L22.525,0H0Z"/></g><path class="b" d="M54.818,22.433a7.04,7.04,0,0,0,1.468-2.727,27.554,27.554,0,0,0,.94-3.1C57.7,14.5,57.7,12.07,56.2,10.431A7.084,7.084,0,0,0,51.5,8.4a8.621,8.621,0,0,0-3.327.422c-1.06.348-1.973,1.043-3,1.474a13.427,13.427,0,0,0-1.583-6.6A6.578,6.578,0,0,0,38.7.5a9.712,9.712,0,0,0-5.967,1.2c-.464.251-.923.514-1.363.811a3.822,3.822,0,0,1-1.183.651c-.482.113-.72-.165-1.034-.517a7.859,7.859,0,0,0-1.218-1.1A7.177,7.177,0,0,0,21.215.4a6.241,6.241,0,0,0-2.738,1.979c-.625.819-1.07,2.119-1.932,2.69-.366.242-.624-.079-.957-.316-.5-.357-.978-.75-1.484-1.1A6.8,6.8,0,0,0,11.8,2.61C10.59,2.331,8.921,2.4,8.576,3.978a6.53,6.53,0,0,0,.012,1.828c.058.822.117,1.643.189,2.464a17.806,17.806,0,0,0,.24,1.837,2.687,2.687,0,0,1,.119,1.261c-.175.408-.981.176-1.326.19A5.238,5.238,0,0,0,5.817,12,2.145,2.145,0,0,0,4.61,13.111a2,2,0,0,0-.033,1.049,3.132,3.132,0,0,1-.064,1.077c-.914-.45-4.082-1.45-4.48.188a2.563,2.563,0,0,0,.4,1.622,14.062,14.062,0,0,0,1.477,2.248A20.1,20.1,0,0,0,5.841,23.11a2.577,2.577,0,0,0-.672,4.317,3.193,3.193,0,0,0,2.345.68,5.182,5.182,0,0,1,.969-.077,2.32,2.32,0,0,0,.44.148,13.072,13.072,0,0,0,3.6-.457,11.859,11.859,0,0,0,5.485-2.869,1.691,1.691,0,0,1,1.269-.583c.472,0,.935.134,1.406.146a10.128,10.128,0,0,0,3.53-.984,13.318,13.318,0,0,0,1.156,4.695c.522,1.148,1.612,1.314,2.682,1.415,3.424.322,6.861-.037,10.29-.033-3.319.75-6.749,1.059-10.038,1.942-1.487.4-.351,1.4.284,2.1A12.077,12.077,0,0,1,30.949,37.6c1.624-2.116,4.494-3.511,7.036-2.861,2.809.718,4.787,4.517,2.991,7.249-1.043,1.586-2.926,2.2-4.493,2.879,1.223,1.271,1.518,3.148,2.254,4.73a3.385,3.385,0,0,0,1.684,1.933,1.968,1.968,0,0,1,.889.354c.293.3.363.642.738.9a4.162,4.162,0,0,0,5.157-.4,3.366,3.366,0,0,0-.114-4.413c1.593-.664,4.5-1.519,3.863-4,3.453-.229,11.836-5.829,7.2-9.921,2.544-1.437,4.88-4.95,3.247-8.047-1.259-2.385-4.184-3.45-6.584-3.577" transform="translate(61.945 83.532) rotate(180)"/></g><g transform="translate(0 0)"><g transform="translate(0 0)"><g transform="translate(0)"><path class="h" d="M25.925,116.381H98.433L107.934,0H0Z"/><path class="i" d="M25.925,116.381h22.3L61.573,0H0Z"/></g></g><path class="g" d="M63.706,132.408c7.731,4.642,20.7-1.322,20.692-7.961-.026-19.864-18.155-113.484-19.1-119.4S54.211-2.437,53.621,5.026c-.939,11.873-2.685,52.976-.939,72,.721,7.853,1.5,15.332,2.261,22Q40.675,73.263,10.808,25.245L0,30.184Q12.731,72.131,20.879,89.412c9.3,19.726,18.022,36.618,21.693,42.568C48.346,141.339,58.4,138.074,63.706,132.408Z" transform="translate(117.392 3.912)"/><path class="j" d="M0,0,4.8,95.273c3.461,16.474,32.762,8.828,32.75,0C37.526,75.23,25.487,5.991,25.478.02Z" transform="translate(118.164 49.627) rotate(-20)"/><g transform="matrix(0.866, -0.5, 0.5, 0.866, 107.89, 28.56)"><path class="k" d="M1.575,13.7A20.153,20.153,0,0,1,0,7.409,47.094,47.094,0,0,1,.846,0H53.783Q55.846,6.822,51.4,7.366t-7.386.982l-24.6,10.969a.938.938,0,0,1-1.239-.475l-.011-.024-1.582-3.836a16.878,16.878,0,0,0-6.689-1.92,15.148,15.148,0,0,0-5.774,1.689h0a1.877,1.877,0,0,1-2.489-.924Q1.6,13.764,1.575,13.7Z" transform="translate(0 0)"/></g><g transform="translate(167.064)"><path class="k" d="M1.575,13.7A20.153,20.153,0,0,1,0,7.409,47.094,47.094,0,0,1,.846,0H53.782Q55.846,6.822,51.4,7.366t-7.386.982l-24.6,10.969a.938.938,0,0,1-1.239-.475l-.011-.024-1.582-3.836a16.878,16.878,0,0,0-6.689-1.92,15.148,15.148,0,0,0-5.774,1.689h0a1.877,1.877,0,0,1-2.489-.924Q1.6,13.764,1.575,13.7Z" transform="translate(0 0)"/></g><path class="l" d="M160.278,88.608c0-24.935-11.841-83.1-11.848-88.588L122.951,0q5.593,77.847,3.967,78.686c-1.627.839-66.686-6.5-86.2-6.5C12.584,72.19.944,89.933,0,122.8H55.737c11.349-1.214,70.545-13.154,92.529-17.259C157.678,103.786,160.278,95.476,160.278,88.608Z" transform="translate(44.112 32.999)"/></g><g transform="translate(32.121 118.415)"><path class="m" d="M0,29.414,32.577,47.257A80.589,80.589,0,0,0,48.59,62.246c1.607.671,4.416,1.077,1.789-3.587S45.2,48.972,46.536,47.535s4.677.57,6.274-1.817q1.6-2.387-17.108-7.542L12.03,16.5ZM51.022,14.36l14.31,7.861q3.011,11.46,7.2,11.532c2.146,1-1.59-8.656,2.476-7.819S89,34.154,90.71,32.655c2.53-2.217.274-9.026-2.384-12.413-4.968-6.33-9.081-8.495-19.248-11.33Q61.105,6.689,51.837,0Z" transform="translate(76.412 66.443)"/><path class="f" d="M5.167,22.863A80.048,80.048,0,0,1,49.51,28.836l4.072-15.041C40.783,4.569,23.8-1.986,10.263.549-.407,2.548-3.831,16.378,5.167,22.863Z" transform="translate(59.02 76.442) rotate(9)"/><path class="f" d="M75.911,77.029Q94.082,72.5,136.853,87.717q10.609-21.948,9.809-31.3c-24.462-12.777-45.426-18.475-62.7-18.851.549-10.248-.7-20-4.889-28.911C70.459-9.659,20.011,7.307,3.049,3.967c-10.622,34.5,9.916,48.516,9.932,70.588C13,98.728,32.409,135.934,35.265,135.934H61.307C62.744,117.474,69.975,97.129,75.911,77.029Z"/></g></g></g></svg>