<svg xmlns="http://www.w3.org/2000/svg" width="48" height="48" viewBox="0 0 48 48"><defs><style>.a{fill:#385fca;}</style></defs><g transform="translate(4 3.998)"><path class="a" d="M28.679,40H11.34C4.557,40,0,35.251,0,28.183V11.84C0,4.758,4.557,0,11.34,0H28.679C35.45,0,40,4.758,40,11.84V28.183C40,35.251,35.45,40,28.679,40Zm-8.7-23.038a1.753,1.753,0,0,0-1.741,1.76v8.84a1.751,1.751,0,0,0,3.5,0v-8.84A1.762,1.762,0,0,0,19.98,16.961Zm.04-6.34a1.751,1.751,0,1,0,1.741,1.76A1.742,1.742,0,0,0,20.02,10.622Z" transform="translate(0 0)"/></g></svg>