<svg xmlns="http://www.w3.org/2000/svg" width="64" height="64" viewBox="0 0 64 64">
  <g id="team" transform="translate(0.5 0.5)">
    <path id="Path_48" data-name="Path 48" d="M62.077,49.368A.923.923,0,0,0,63,48.445V47.031a5.886,5.886,0,0,0-4.051-5.6l-5.768-1.9v-2a6.892,6.892,0,0,0,3.356-5.911V27.647A6.886,6.886,0,0,0,44.16,23.488,5.862,5.862,0,0,0,40.8,20.674l-5.767-1.9v-2a6.891,6.891,0,0,0,3.356-5.911V6.889a6.889,6.889,0,1,0-13.778,0v3.978a6.892,6.892,0,0,0,3.356,5.911v2l-5.767,1.9a5.863,5.863,0,0,0-3.36,2.815A6.886,6.886,0,0,0,6.464,27.647v3.978A6.891,6.891,0,0,0,9.82,37.536v2l-5.769,1.9A5.886,5.886,0,0,0,0,47.031v1.414a.923.923,0,1,0,1.846,0V47.031a4.043,4.043,0,0,1,2.782-3.847l5.4-1.778a3.533,3.533,0,0,0,6.642,0l5.4,1.778A4.038,4.038,0,0,1,24.6,45.612l-2.4.791A5.884,5.884,0,0,0,18.147,52v1.073H7.066V50.766a.923.923,0,1,0-1.846,0v2.309H1.846v-.319a.923.923,0,0,0-1.846,0V54a.923.923,0,0,0,.923.923H18.147v7.156A.923.923,0,0,0,19.07,63H43.93a.923.923,0,0,0,.923-.923V60.844a.923.923,0,0,0-1.846,0v.31H39.632V55.738a.923.923,0,0,0-1.846,0v5.416H25.214V55.738a.923.923,0,1,0-1.846,0v5.416H19.993V52a4.041,4.041,0,0,1,2.783-3.846l5.4-1.778a3.533,3.533,0,0,0,6.642,0l5.4,1.778A4.041,4.041,0,0,1,43.007,52v4.533a.923.923,0,0,0,1.846,0V54.921H62.077A.923.923,0,0,0,63,54V52.757a.923.923,0,0,0-1.846,0v.319H57.78V50.766a.923.923,0,1,0-1.846,0v2.309H44.853V52A5.884,5.884,0,0,0,40.8,46.4l-2.4-.791a4.038,4.038,0,0,1,2.526-2.428l5.4-1.778a3.533,3.533,0,0,0,6.642,0l5.4,1.778a4.043,4.043,0,0,1,2.783,3.847v1.414a.923.923,0,0,0,.923.923ZM49.647,22.6a5.049,5.049,0,0,1,5.043,5.043v3.978a5.043,5.043,0,1,1-10.087,0V27.647A5.049,5.049,0,0,1,49.647,22.6ZM26.457,10.867V6.889a5.043,5.043,0,0,1,10.087,0v3.978a5.043,5.043,0,0,1-10.087,0ZM31.5,17.756a6.877,6.877,0,0,0,1.687-.21v1.872c0,.009,0,.017,0,.026a1.687,1.687,0,0,1-3.375,0c0-.009,0-.017,0-.026V17.546a6.879,6.879,0,0,0,1.687.21Zm-8.723,4.671,5.4-1.779a3.533,3.533,0,0,0,6.642,0l5.4,1.779a4.019,4.019,0,0,1,2.762,3.464,6.872,6.872,0,0,0-.228,1.756v3.978a6.929,6.929,0,0,0,.035.693H38.381a6.888,6.888,0,0,0-13.763,0H20.207a6.931,6.931,0,0,0,.035-.693V27.647a6.873,6.873,0,0,0-.228-1.756,4.02,4.02,0,0,1,2.763-3.464ZM31.5,41.64A5.049,5.049,0,0,1,26.457,36.6V32.619a5.043,5.043,0,0,1,10.087,0V36.6A5.049,5.049,0,0,1,31.5,41.64ZM8.309,31.624V27.647a5.043,5.043,0,1,1,10.087,0v3.978a5.043,5.043,0,1,1-10.087,0ZM15.04,40.2a1.687,1.687,0,0,1-3.375,0V38.3a6.891,6.891,0,0,0,3.375,0Zm7.614,1.23-5.768-1.9v-2a6.929,6.929,0,0,0,2.869-3.373h4.856V36.6a6.892,6.892,0,0,0,3.356,5.911v2l-1.612.53a5.877,5.877,0,0,0-3.7-3.6ZM31.5,46.86a1.689,1.689,0,0,1-1.687-1.687v-1.9a6.891,6.891,0,0,0,3.375,0v1.9A1.689,1.689,0,0,1,31.5,46.86Zm8.846-5.429a5.876,5.876,0,0,0-3.7,3.6l-1.612-.53v-2A6.892,6.892,0,0,0,38.389,36.6V34.163h4.856a6.928,6.928,0,0,0,2.869,3.373v2Zm9.3.457A1.689,1.689,0,0,1,47.96,40.2V38.3a6.891,6.891,0,0,0,3.375,0v1.9A1.689,1.689,0,0,1,49.647,41.888Z" stroke="#000" stroke-width="1"/>
  </g>
</svg>
