<svg xmlns="http://www.w3.org/2000/svg" width="22.5" height="22.5" viewBox="0 0 22.5 22.5">
  <g id="Tick_Square" data-name="Tick Square" transform="translate(0 0)">
    <path id="Tick_Square-2" data-name="Tick Square" d="M16.132,22.5H6.379C2.563,22.5,0,19.829,0,15.853V6.66C0,2.677,2.563,0,6.379,0h9.753C19.941,0,22.5,2.677,22.5,6.66v9.192C22.5,19.829,19.941,22.5,16.132,22.5ZM7.245,10.265a.985.985,0,0,0-.7,1.682l2.677,2.666a.991.991,0,0,0,1.384,0L15.953,9.27a.987.987,0,0,0-1.4-1.4L9.911,12.522,7.942,10.552A.977.977,0,0,0,7.245,10.265Z" transform="translate(0 0)" fill="#11cd0f"/>
  </g>
</svg>
